<?xml version="1.0" encoding="UTF-8" standalone="no"?>
<!-- Created with Inkscape (http://www.inkscape.org/) -->

<svg
   version="1.1"
   id="svg14"
   width="32"
   height="32"
   viewBox="0 0 32 32"
   sodipodi:docname="favicon.svg"
   inkscape:version="1.1.1 (3bf5ae0d25, 2021-09-20)"
   xmlns:inkscape="http://www.inkscape.org/namespaces/inkscape"
   xmlns:sodipodi="http://sodipodi.sourceforge.net/DTD/sodipodi-0.dtd"
   xmlns="http://www.w3.org/2000/svg"
   xmlns:svg="http://www.w3.org/2000/svg">
  <defs
     id="defs18" />
  <sodipodi:namedview
     id="namedview16"
     pagecolor="#ffffff"
     bordercolor="#666666"
     borderopacity="1.0"
     inkscape:pageshadow="2"
     inkscape:pageopacity="0.0"
     inkscape:pagecheckerboard="0"
     showgrid="false"
     inkscape:zoom="11.547218"
     inkscape:cx="15.761372"
     inkscape:cy="20.394522"
     inkscape:window-width="1920"
     inkscape:window-height="1017"
     inkscape:window-x="-8"
     inkscape:window-y="-8"
     inkscape:window-maximized="1"
     inkscape:current-layer="g20" />
  <g
     inkscape:groupmode="layer"
     inkscape:label="Image"
     id="g20">
    <path
       style="fill:#000000;stroke-width:0.32"
       d="M 3.3127318e-8,23.386667 C 3.3127318e-8,16.795415 0.09390503,14.735442 0.40000003,14.61193 c 0.32,-0.129123 0.32,-0.166456 0,-0.186667 C 0.09799383,14.406193 3.3127318e-8,13.164816 3.3127318e-8,9.3581155 V 4.3162314 L 0.98375083,3.8807808 C 2.0692983,3.4002707 4.7578838,3.2584291 5.38884,3.6483814 5.6914064,3.8353776 5.7011072,4.005385 5.4279898,4.3344714 4.5804986,5.3556358 6.0409853,5.815857 7.3094915,4.9273603 7.7120342,4.6454086 8.1388755,4.512209 8.2580278,4.6313613 8.3771802,4.7505136 8.2238682,4.9883568 7.9173344,5.1599018 7.6108003,5.3314467 7.36,5.7350144 7.36,6.0567184 7.36,6.3784227 7.144,6.8208995 6.88,7.04 6.616,7.2591005 6.4,7.6799325 6.4,7.9751824 6.4,8.270432 6.265623,8.6488 6.1013843,8.816 c -0.1642384,0.1672 -0.3442384,0.8767907 -0.4,1.576868 -0.097382,1.222617 -0.1543161,1.281836 -1.4421699,1.500033 C 2.6143959,12.171578 1.28,13.004432 1.28,13.752359 c 0,0.452118 0.3778377,0.593013 1.9798262,0.738277 1.5655645,0.14196 2.101449,0.335392 2.561081,0.924444 0.8279875,1.061126 0.6332627,2.315692 -0.3809072,2.454096 -1.0616778,0.144887 -1.92,0.947964 -1.92,1.79642 0,0.377522 -0.1704,0.856804 -0.3786667,1.065071 -0.557101,0.557101 -0.1031255,0.818439 0.6870849,0.395531 1.10784,-0.592898 2.3938842,-0.29128 2.5186746,0.590709 0.058901,0.416299 -0.049099,0.913099 -0.24,1.104 C 5.9161917,23.011808 5.76,23.502764 5.76,23.91192 c 0,0.492042 -0.2615949,0.843379 -0.7726179,1.037669 -0.4249399,0.161562 -0.8576819,0.561762 -0.9616493,0.889334 -0.103967,0.327571 -0.764289,1.194257 -1.467382,1.925967 C 1.4504053,28.917931 1.28,29.288874 1.28,30.547636 1.28,31.786667 1.185992,32 0.64000003,32 0.01585143,32 3.3127316e-8,31.786667 3.3127318e-8,23.386667 Z M 3.52,30.184813 c 0,-2.455033 0.4976496,-3.154449 2.4332218,-3.419749 0.9374419,-0.128491 1.6630134,-0.07077 1.9336288,0.153819 0.3231571,0.268196 0.5584825,0.255464 0.9267116,-0.05014 0.3563206,-0.29572 0.5905856,-0.312596 0.8424906,-0.06069 0.5077402,0.507741 0.0945,1.295987 -1.0084742,1.923643 -1.1612528,0.660818 -1.2675607,1.172976 -0.1871898,0.90182 0.4292138,-0.107726 0.870039,-0.05081 0.979611,0.126484 0.109573,0.177292 0.5863972,0.229563 1.0596112,0.116158 1.119417,-0.268267 1.180429,-0.337746 0.750979,-0.855201 -0.268615,-0.323661 -0.259839,-0.65154 0.0344,-1.285237 0.320906,-0.691128 0.612783,-0.851195 1.555829,-0.853223 0.644176,-0.0014 1.338116,0.211135 1.559182,0.477503 0.221953,0.267437 0.919507,0.48 1.575182,0.48 0.64725,0 1.332381,0.155563 1.522512,0.345694 0.43647,0.43647 3.240094,-0.45829 3.789258,-1.209318 0.224276,-0.306716 0.455137,-0.384242 0.573571,-0.192612 0.109017,0.176394 -0.157002,0.802185 -0.591154,1.390646 -0.994829,1.348414 -0.990542,1.7112 0.02569,2.174225 1.720816,0.784056 2.874989,0.382381 5.575281,-1.940308 1.130987,-0.972832 1.286653,-1.229568 0.84766,-1.398026 -0.295761,-0.113493 -0.985918,-0.116717 -1.533684,-0.0072 C 25.055367,27.228927 24.32,26.783111 24.32,25.872897 c 0,-0.790663 1.34169,-1.29712 3.14286,-1.186357 1.05258,0.06473 1.473945,-0.05055 1.707016,-0.467029 0.170202,-0.304134 0.444608,-0.469445 0.609791,-0.367356 0.508277,0.314132 0.33413,1.408047 -0.377354,2.370381 -0.372728,0.504141 -0.580229,1.07431 -0.461115,1.267042 0.326411,0.528143 1.810841,0.420619 2.473605,-0.179174 C 31.977187,26.801453 32,26.882539 32,29.390404 V 32 L 19.12,31.97751 C 10.730798,31.962859 6.4631453,31.848997 6.88,31.65094 7.4188954,31.3949 7.3936192,31.378916 6.72,31.549758 c -0.44,0.111592 -1.34,0.273673 -2,0.36018 l -1.2,0.157284 z M 19.84,29.421115 C 19.84,29.255501 19.624,29.12 19.36,29.12 c -0.494851,0 -0.635745,0.377588 -0.275366,0.737967 C 19.340292,30.113625 19.84,29.824627 19.84,29.421115 Z m 3.74,-0.187782 C 23.162688,28.816022 23.361923,28.48 24.026667,28.48 c 0.372397,0 0.610755,0.167733 0.54,0.38 -0.155877,0.46763 -0.690196,0.669804 -0.986667,0.373333 z m -3.611366,-5.999681 c -0.0942,-0.245492 -0.125685,-1.001492 -0.06996,-1.68 C 19.997914,20.345376 20.02624,20.32 21.275618,20.32 c 1.021817,0 1.299771,0.127336 1.397018,0.64 0.06677,0.352 0.263931,0.729885 0.438135,0.839746 0.193463,0.122006 0.102461,0.526767 -0.233822,1.04 C 22.460485,23.475351 22.060128,23.68 21.233154,23.68 c -0.63994,0 -1.16426,-0.185074 -1.26452,-0.446348 z M 9.5999998,22.266667 c 0,-0.278667 0.228,-0.506667 0.5066672,-0.506667 0.565096,0 0.466684,0.688883 -0.1266672,0.886667 -0.209,0.06967 -0.38,-0.101334 -0.38,-0.38 z M 13.84061,22.494245 C 13.239884,22.378509 13.175761,22.253736 13.451868,21.737824 13.633725,21.39802 13.983165,21.12 14.228402,21.12 14.941443,21.12 15.68,20.185018 15.68,19.28234 c 0,-0.45757 0.220254,-1.075324 0.489454,-1.372787 0.40236,-0.444602 0.496022,-1.687563 0.526366,-6.985197 C 16.72475,5.8730323 16.822546,4.48 17.148221,4.48 17.37674,4.48 17.773129,4.1810122 18.029085,3.8155827 18.675764,2.8923188 20.278732,3.0694279 20.422256,4.08 20.523554,4.7932499 21.76,5.162961 21.76,4.48 c 0,-0.176 0.349638,-0.32 0.776974,-0.32 0.697493,0 0.798302,0.1718576 0.985473,1.68 0.114674,0.924 0.161036,2.256 0.103026,2.96 -0.08595,1.043137 -0.238188,1.298854 -0.822658,1.381887 -0.394452,0.05604 -0.921194,0.39315 -1.170537,0.749138 -0.256348,0.365988 -0.709503,0.594948 -1.042815,0.52689 -0.483076,-0.09864 -0.579829,-0.395975 -0.536082,-1.647475 0.04435,-1.2686813 -0.03688,-1.5100298 -0.48,-1.4261568 -0.3424,0.064809 -0.569775,0.4789702 -0.635024,1.1566858 -0.0559,0.58065 -0.307904,1.134877 -0.56,1.231616 -0.601921,0.230979 -0.588192,1.037679 0.02164,1.271695 0.333857,0.128113 0.48,0.649027 0.48,1.710925 0,1.220336 -0.144496,1.628067 -0.72,2.031664 -0.728525,0.51091 -0.627555,0.748125 0.56,1.315654 0.176,0.08411 -0.004,0.392015 -0.4,0.684233 C 17.43944,18.436544 17.394837,18.88 18.210042,18.88 c 0.754675,0 0.57956,0.973021 -0.321944,1.788871 -0.792401,0.717113 -0.776656,1.209852 0.0319,0.998409 0.395696,-0.103476 0.64,-0.0098 0.64,0.245356 0,0.703338 -2.492923,1.010562 -4.71939,0.581609 z M 18.24,9.6188854 C 18.24,9.4532723 18.096,9.2287741 17.92,9.12 17.744,9.0112259 17.6,9.146728 17.6,9.4211146 17.6,9.6955014 17.744,9.92 17.92,9.92 c 0.176,0 0.32,-0.1355014 0.32,-0.3011146 z M 21.417509,6.8 C 21.429879,6.58 21.296,6.4 21.12,6.4 c -0.176,0 -0.309879,0.468 -0.297509,1.04 0.01885,0.8715286 0.06704,0.9363254 0.297509,0.4 0.15126,-0.352 0.285139,-0.82 0.297509,-1.04 z M 10.044651,20.983272 c -0.09639,-0.2512 -0.1278752,-0.7912 -0.06996,-1.2 C 10.058161,19.194149 10.279093,19.04 11.039997,19.04 c 0.758772,0 0.981918,0.154613 1.064564,0.737613 0.05751,0.405688 -0.06812,0.945688 -0.279182,1.2 -0.492673,0.593635 -1.55381,0.597007 -1.780731,0.0057 z M 20.56,19.129442 c -0.756011,-0.364611 -1.026079,-1.942504 -0.398826,-2.330168 0.176646,-0.109173 0.23276,-0.55077 0.124697,-0.981326 -0.114428,-0.455919 0.02498,-1.249523 0.333839,-1.900389 C 21.073042,12.962234 21.308802,12.8 22.243755,12.8 c 1.465535,0 2.074368,0.990712 1.033535,1.6818 -0.629035,0.417663 -0.656852,0.532659 -0.248011,1.025282 0.403279,0.485922 0.396492,0.590669 -0.05463,0.843132 -0.66387,0.37152 -0.391643,1.473949 0.479031,1.939919 0.644192,0.344762 0.642441,0.356122 -0.119973,0.778528 -0.924879,0.512417 -1.797592,0.531542 -2.773703,0.06078 z m -9.68,-2.790557 c 0,-1.766051 0.305243,-2.140559 1.307485,-1.604176 0.547958,0.293258 0.642488,0.555428 0.484713,1.3443 C 12.441722,17.231388 11.936247,17.92 11.320818,17.92 11.005872,17.92 10.88,17.468526 10.88,16.338885 Z M 31.176442,15.22755 c -0.355279,-0.248847 -1.070089,-0.500847 -1.588466,-0.56 -1.12522,-0.1284 -1.380666,-0.909616 -0.56396,-1.724725 0.316791,-0.316172 0.719984,-1.01765 0.895984,-1.558841 0.210922,-0.648574 0.563702,-1.018614 1.034942,-1.085578 0.572166,-0.08131 0.692402,-0.273019 0.602075,-0.9599996 C 31.49494,8.8662829 31.336669,8.2250282 31.205304,7.9133962 31.06579,7.582432 31.173912,6.9184496 31.465285,6.3168278 c 0.474189,-0.9790928 0.4997,-0.7732985 0.516511,4.1666042 0.0097,2.858112 -0.02216,5.196568 -0.07085,5.196568 -0.0487,0 -0.379221,-0.203602 -0.7345,-0.45245 z M 11.093333,12.906667 C 10.976,12.789333 10.88,12.213333 10.88,11.626667 10.88,10.620952 10.944,10.56 12,10.56 c 1.028157,0 1.12,0.0778 1.12,0.948741 0,1.147999 -1.347283,2.077309 -2.026667,1.397926 z M 24.129997,11.791455 C 23.833081,11.311035 24.873593,10.56 25.836101,10.56 c 0.743406,0 0.745867,0.01087 0.178838,0.789944 -0.611578,0.840285 -1.508627,1.050401 -1.884942,0.441511 z m 4.233577,-0.753293 C 28.262656,10.775173 28.311064,10.56 28.471158,10.56 c 0.433777,0 0.70314,0.568671 0.367593,0.776051 -0.160429,0.09915 -0.374258,-0.0349 -0.475177,-0.297889 z M 11.106832,9.4001651 C 10.982074,9.2754077 10.88,8.7617693 10.88,8.2587462 c 0,-0.6960313 0.203625,-0.9920051 0.852108,-1.2385577 1.138009,-0.4326704 1.497664,-0.014554 1.149416,1.3362489 -0.269033,1.0435357 -1.217232,1.6011882 -1.774692,1.0437277 z M 27.6,9.0541654 C 26.809882,8.9019821 26.666216,8.3417843 27.264,7.744 c 0.527977,-0.5279773 1.234322,-0.4840909 1.024141,0.063632 -0.09447,0.2461977 -0.01796,0.542696 0.170043,0.6588854 0.388138,0.2398823 0.467,0.8362131 0.101816,0.7699047 C 28.428,9.2124541 27.996,9.1304384 27.6,9.0541654 Z m 0.403836,-2.962078 c -0.10961,-0.345352 -0.06561,-0.885352 0.09778,-1.2 0.163389,-0.314648 0.207366,-1.1724602 0.09773,-1.906249 C 27.965121,1.4182405 26.916566,0.43693709 25.261094,0.23604318 24.655492,0.16255248 25.924,0.07937839 28.08,0.05121186 L 32,0 31.96288,2.64 c -0.02042,1.452 -0.102975,2.388 -0.183464,2.08 -0.215917,-0.826232 -2.207887,-0.7775286 -2.426731,0.059333 -0.101492,0.3881047 0.03391,0.6953184 0.362678,0.8228544 0.468129,0.1816 0.457732,0.2527597 -0.09652,0.6606666 C 28.7652,6.8910918 28.239798,6.835537 28.003836,6.0920874 Z M 12.16,5.4588854 C 12.16,5.2932723 12.304,5.0687741 12.48,4.96 12.656,4.8512259 12.8,4.494096 12.8,4.1663776 c 0,-0.3277181 0.648,-1.2438513 1.44,-2.0358513 0.792,-0.792 1.44,-1.5393943 1.44,-1.66087622 0,-0.29825869 -2.3217,0.14414448 -2.704,0.51525101 C 12.540658,1.4074968 11.396766,1.3488855 10.928692,0.88 10.709073,0.66 9.5642728,0.39465722 8.3846925,0.29034937 7.2051117,0.18604153 10.2,0.10526969 15.04,0.1108564 19.88,0.1164434 22.97712,0.1740128 21.92249,0.238789 20.684236,0.3148435 19.913447,0.5201224 19.746589,0.81828195 19.604474,1.0722269 19.2054,1.28 18.859757,1.28 c -0.712546,0 -1.944453,0.6223756 -2.292174,1.1580364 -0.127829,0.1969201 -0.667829,0.5383902 -1.2,0.7588225 C 14.796083,3.4335824 14.4,3.8341443 14.4,4.1753853 14.4,4.5038154 13.964519,4.9703715 13.390836,5.2565626 12.208636,5.8463216 12.16,5.8543162 12.16,5.4588854 Z M 3.3127318e-8,1.76 V 0 L 2.16,0.0097308 C 3.950415,0.0177966 4.2104934,0.08257251 3.68,0.38830658 2.6341636,0.99104331 1.28,2.4733323 1.28,3.0153846 1.28,3.3066666 1.0094309,3.52 0.64000003,3.52 0.07757573,3.52 3.3127318e-8,3.3066666 3.3127318e-8,1.76 Z"
       id="path376" />
  </g>
</svg>
